<?xml version="1.0" encoding="UTF-8" standalone="no"?>
<!DOCTYPE svg PUBLIC "-//W3C//DTD SVG 1.1//EN"
 "http://www.w3.org/Graphics/SVG/1.1/DTD/svg11.dtd">
<!-- Generated by graphviz version 2.36.0 (20140111.2315)
 -->
<!-- Title: ./target/release/nnet&#45;prof; 606 samples Pages: 1 -->
<svg width="100%" height="100%" xmlns="http://www.w3.org/2000/svg" xmlns:xlink="http://www.w3.org/1999/xlink">
<script type="text/ecmascript"><![CDATA[
// SVGPan
// http://www.cyberz.org/blog/2009/12/08/svgpan-a-javascript-svg-panzoomdrag-library/
// Local modification: if(true || ...) below to force panning, never moving.

/**
 *  SVGPan library 1.2
 * ====================
 *
 * Given an unique existing element with id "viewport", including the
 * the library into any SVG adds the following capabilities:
 *
 *  - Mouse panning
 *  - Mouse zooming (using the wheel)
 *  - Object dargging
 *
 * Known issues:
 *
 *  - Zooming (while panning) on Safari has still some issues
 *
 * Releases:
 *
 * 1.2, Sat Mar 20 08:42:50 GMT 2010, Zeng Xiaohui
 *	Fixed a bug with browser mouse handler interaction
 *
 * 1.1, Wed Feb  3 17:39:33 GMT 2010, Zeng Xiaohui
 *	Updated the zoom code to support the mouse wheel on Safari/Chrome
 *
 * 1.0, Andrea Leofreddi
 *	First release
 *
 * This code is licensed under the following BSD license:
 *
 * Copyright 2009-2010 Andrea Leofreddi <a.leofreddi@itcharm.com>. All rights reserved.
 *
 * Redistribution and use in source and binary forms, with or without modification, are
 * permitted provided that the following conditions are met:
 *
 *    1. Redistributions of source code must retain the above copyright notice, this list of
 *       conditions and the following disclaimer.
 *
 *    2. Redistributions in binary form must reproduce the above copyright notice, this list
 *       of conditions and the following disclaimer in the documentation and/or other materials
 *       provided with the distribution.
 *
 * THIS SOFTWARE IS PROVIDED BY Andrea Leofreddi ``AS IS'' AND ANY EXPRESS OR IMPLIED
 * WARRANTIES, INCLUDING, BUT NOT LIMITED TO, THE IMPLIED WARRANTIES OF MERCHANTABILITY AND
 * FITNESS FOR A PARTICULAR PURPOSE ARE DISCLAIMED. IN NO EVENT SHALL Andrea Leofreddi OR
 * CONTRIBUTORS BE LIABLE FOR ANY DIRECT, INDIRECT, INCIDENTAL, SPECIAL, EXEMPLARY, OR
 * CONSEQUENTIAL DAMAGES (INCLUDING, BUT NOT LIMITED TO, PROCUREMENT OF SUBSTITUTE GOODS OR
 * SERVICES; LOSS OF USE, DATA, OR PROFITS; OR BUSINESS INTERRUPTION) HOWEVER CAUSED AND ON
 * ANY THEORY OF LIABILITY, WHETHER IN CONTRACT, STRICT LIABILITY, OR TORT (INCLUDING
 * NEGLIGENCE OR OTHERWISE) ARISING IN ANY WAY OUT OF THE USE OF THIS SOFTWARE, EVEN IF
 * ADVISED OF THE POSSIBILITY OF SUCH DAMAGE.
 *
 * The views and conclusions contained in the software and documentation are those of the
 * authors and should not be interpreted as representing official policies, either expressed
 * or implied, of Andrea Leofreddi.
 */

var root = document.documentElement;

var state = 'none', stateTarget, stateOrigin, stateTf;

setupHandlers(root);

/**
 * Register handlers
 */
function setupHandlers(root){
	setAttributes(root, {
		"onmouseup" : "add(evt)",
		"onmousedown" : "handleMouseDown(evt)",
		"onmousemove" : "handleMouseMove(evt)",
		"onmouseup" : "handleMouseUp(evt)",
		//"onmouseout" : "handleMouseUp(evt)", // Decomment this to stop the pan functionality when dragging out of the SVG element
	});

	if(navigator.userAgent.toLowerCase().indexOf('webkit') >= 0)
		window.addEventListener('mousewheel', handleMouseWheel, false); // Chrome/Safari
	else
		window.addEventListener('DOMMouseScroll', handleMouseWheel, false); // Others

	var g = svgDoc.getElementById("svg");
	g.width = "100%";
	g.height = "100%";
}

/**
 * Instance an SVGPoint object with given event coordinates.
 */
function getEventPoint(evt) {
	var p = root.createSVGPoint();

	p.x = evt.clientX;
	p.y = evt.clientY;

	return p;
}

/**
 * Sets the current transform matrix of an element.
 */
function setCTM(element, matrix) {
	var s = "matrix(" + matrix.a + "," + matrix.b + "," + matrix.c + "," + matrix.d + "," + matrix.e + "," + matrix.f + ")";

	element.setAttribute("transform", s);
}

/**
 * Dumps a matrix to a string (useful for debug).
 */
function dumpMatrix(matrix) {
	var s = "[ " + matrix.a + ", " + matrix.c + ", " + matrix.e + "\n  " + matrix.b + ", " + matrix.d + ", " + matrix.f + "\n  0, 0, 1 ]";

	return s;
}

/**
 * Sets attributes of an element.
 */
function setAttributes(element, attributes){
	for (i in attributes)
		element.setAttributeNS(null, i, attributes[i]);
}

/**
 * Handle mouse move event.
 */
function handleMouseWheel(evt) {
	if(evt.preventDefault)
		evt.preventDefault();

	evt.returnValue = false;

	var svgDoc = evt.target.ownerDocument;

	var delta;

	if(evt.wheelDelta)
		delta = evt.wheelDelta / 3600; // Chrome/Safari
	else
		delta = evt.detail / -90; // Mozilla

	var z = 1 + delta; // Zoom factor: 0.9/1.1

	var g = svgDoc.getElementById("viewport");

	var p = getEventPoint(evt);

	p = p.matrixTransform(g.getCTM().inverse());

	// Compute new scale matrix in current mouse position
	var k = root.createSVGMatrix().translate(p.x, p.y).scale(z).translate(-p.x, -p.y);

        setCTM(g, g.getCTM().multiply(k));

	stateTf = stateTf.multiply(k.inverse());
}

/**
 * Handle mouse move event.
 */
function handleMouseMove(evt) {
	if(evt.preventDefault)
		evt.preventDefault();

	evt.returnValue = false;

	var svgDoc = evt.target.ownerDocument;

	var g = svgDoc.getElementById("viewport");

	if(state == 'pan') {
		// Pan mode
		var p = getEventPoint(evt).matrixTransform(stateTf);

		setCTM(g, stateTf.inverse().translate(p.x - stateOrigin.x, p.y - stateOrigin.y));
	} else if(state == 'move') {
		// Move mode
		var p = getEventPoint(evt).matrixTransform(g.getCTM().inverse());

		setCTM(stateTarget, root.createSVGMatrix().translate(p.x - stateOrigin.x, p.y - stateOrigin.y).multiply(g.getCTM().inverse()).multiply(stateTarget.getCTM()));

		stateOrigin = p;
	}
}

/**
 * Handle click event.
 */
function handleMouseDown(evt) {
	if(evt.preventDefault)
		evt.preventDefault();

	evt.returnValue = false;

	var svgDoc = evt.target.ownerDocument;

	var g = svgDoc.getElementById("viewport");

	if(true || evt.target.tagName == "svg") {
		// Pan mode
		state = 'pan';

		stateTf = g.getCTM().inverse();

		stateOrigin = getEventPoint(evt).matrixTransform(stateTf);
	} else {
		// Move mode
		state = 'move';

		stateTarget = evt.target;

		stateTf = g.getCTM().inverse();

		stateOrigin = getEventPoint(evt).matrixTransform(stateTf);
	}
}

/**
 * Handle mouse button release event.
 */
function handleMouseUp(evt) {
	if(evt.preventDefault)
		evt.preventDefault();

	evt.returnValue = false;

	var svgDoc = evt.target.ownerDocument;

	if(state == 'pan' || state == 'move') {
		// Quit pan mode
		state = '';
	}
}

]]></script>
<g id="viewport" transform="matrix(1.2077999114990234,0,0,1.2077999114990234,-2328.969172362704,26.06614797457587)">
<g id="viewport" class="graph" transform="scale(1 1) rotate(0) translate(4 1842)">
<title>./target/release/nnet&#45;prof; 606 samples</title>
<polygon fill="white" stroke="none" points="-4,4 -4,-1842 5793,-1842 5793,4 -4,4"/>
<!-- Legend -->
<g id="node1" class="node"><title>Legend</title>
<text text-anchor="start" x="1933" y="-1814.8" font-family="Times,serif" font-size="24.00">./target/release/nnet&#45;prof</text>
<text text-anchor="start" x="1933" y="-1788.8" font-family="Times,serif" font-size="24.00">Total samples: 606</text>
<text text-anchor="start" x="1933" y="-1762.8" font-family="Times,serif" font-size="24.00">Focusing on: 606</text>
<text text-anchor="start" x="1933" y="-1736.8" font-family="Times,serif" font-size="24.00">Dropped nodes with &lt;= 3 abs(samples)</text>
<text text-anchor="start" x="1933" y="-1710.8" font-family="Times,serif" font-size="24.00">Dropped edges with &lt;= 0 samples</text>
</g>
<!-- N1 -->
<g id="node2" class="node"><title>N1</title>
<polygon fill="none" stroke="black" points="2404,-1647.5 2330,-1647.5 2330,-1612.5 2404,-1612.5 2404,-1647.5"/>
<text text-anchor="middle" x="2367" y="-1637.1" font-family="Times,serif" font-size="8.00">__libc_start_main</text>
<text text-anchor="end" x="2396" y="-1628.1" font-family="Times,serif" font-size="8.00">0 (0.0%)</text>
<text text-anchor="end" x="2396" y="-1619.1" font-family="Times,serif" font-size="8.00">of 601 (99.2%)</text>
</g>
<!-- N7 -->
<g id="node8" class="node"><title>N7</title>
<polygon fill="none" stroke="black" points="2407,-1560 2327,-1560 2327,-1498 2407,-1498 2407,-1560"/>
<text text-anchor="middle" x="2367" y="-1549.6" font-family="Times,serif" font-size="8.00">std</text>
<text text-anchor="middle" x="2367" y="-1540.6" font-family="Times,serif" font-size="8.00">rt</text>
<text text-anchor="middle" x="2367" y="-1531.6" font-family="Times,serif" font-size="8.00">lang_start</text>
<text text-anchor="middle" x="2367" y="-1522.6" font-family="Times,serif" font-size="8.00">h162055cb2e4b9fe7</text>
<text text-anchor="end" x="2399" y="-1513.6" font-family="Times,serif" font-size="8.00">0 (0.0%)</text>
<text text-anchor="end" x="2399" y="-1504.6" font-family="Times,serif" font-size="8.00">of 601 (99.2%)</text>
</g>
<!-- N1&#45;&gt;N7 -->
<g id="edge5" class="edge"><title>N1&#45;&gt;N7</title>
<path fill="none" stroke="black" stroke-width="2" d="M2367,-1612.21C2367,-1600.75 2367,-1585.07 2367,-1570.47"/>
<polygon fill="black" stroke="black" stroke-width="2" points="2370.5,-1570.11 2367,-1560.11 2363.5,-1570.11 2370.5,-1570.11"/>
<text text-anchor="middle" x="2377.5" y="-1582.3" font-family="Times,serif" font-size="14.00">601</text>
</g>
<!-- N2 -->
<g id="node3" class="node"><title>N2</title>
<polygon fill="none" stroke="black" points="2418.25,-1445.5 2315.75,-1445.5 2315.75,-1410.5 2418.25,-1410.5 2418.25,-1445.5"/>
<text text-anchor="middle" x="2367" y="-1435.1" font-family="Times,serif" font-size="8.00">__rust_maybe_catch_panic</text>
<text text-anchor="end" x="2410.5" y="-1426.1" font-family="Times,serif" font-size="8.00">0 (0.0%)</text>
<text text-anchor="end" x="2410.5" y="-1417.1" font-family="Times,serif" font-size="8.00">of 601 (99.2%)</text>
</g>
<!-- N3 -->
<g id="node4" class="node"><title>N3</title>
<polygon fill="none" stroke="black" points="2399.25,-1357.5 2334.75,-1357.5 2334.75,-1322.5 2399.25,-1322.5 2399.25,-1357.5"/>
<text text-anchor="middle" x="2367" y="-1347.1" font-family="Times,serif" font-size="8.00">__rust_try</text>
<text text-anchor="end" x="2391.5" y="-1338.1" font-family="Times,serif" font-size="8.00">0 (0.0%)</text>
<text text-anchor="end" x="2391.5" y="-1329.1" font-family="Times,serif" font-size="8.00">of 601 (99.2%)</text>
</g>
<!-- N2&#45;&gt;N3 -->
<g id="edge2" class="edge"><title>N2&#45;&gt;N3</title>
<path fill="none" stroke="black" stroke-width="2" d="M2367,-1410.42C2367,-1398.28 2367,-1381.56 2367,-1367.58"/>
<polygon fill="black" stroke="black" stroke-width="2" points="2370.5,-1367.53 2367,-1357.53 2363.5,-1367.53 2370.5,-1367.53"/>
<text text-anchor="middle" x="2377.5" y="-1380.3" font-family="Times,serif" font-size="14.00">601</text>
</g>
<!-- N6 -->
<g id="node7" class="node"><title>N6</title>
<polygon fill="none" stroke="black" points="2407,-1269.5 2327,-1269.5 2327,-1198.5 2407,-1198.5 2407,-1269.5"/>
<text text-anchor="middle" x="2367" y="-1259.1" font-family="Times,serif" font-size="8.00">std</text>
<text text-anchor="middle" x="2367" y="-1250.1" font-family="Times,serif" font-size="8.00">panicking</text>
<text text-anchor="middle" x="2367" y="-1241.1" font-family="Times,serif" font-size="8.00">try</text>
<text text-anchor="middle" x="2367" y="-1232.1" font-family="Times,serif" font-size="8.00">call</text>
<text text-anchor="middle" x="2367" y="-1223.1" font-family="Times,serif" font-size="8.00">hca715a47aa047c49</text>
<text text-anchor="end" x="2399" y="-1214.1" font-family="Times,serif" font-size="8.00">0 (0.0%)</text>
<text text-anchor="end" x="2399" y="-1205.1" font-family="Times,serif" font-size="8.00">of 601 (99.2%)</text>
</g>
<!-- N3&#45;&gt;N6 -->
<g id="edge6" class="edge"><title>N3&#45;&gt;N6</title>
<path fill="none" stroke="black" stroke-width="2" d="M2367,-1322.29C2367,-1310.81 2367,-1295 2367,-1279.97"/>
<polygon fill="black" stroke="black" stroke-width="2" points="2370.5,-1279.76 2367,-1269.76 2363.5,-1279.76 2370.5,-1279.76"/>
<text text-anchor="middle" x="2377.5" y="-1292.3" font-family="Times,serif" font-size="14.00">601</text>
</g>
<!-- N4 -->
<g id="node5" class="node"><title>N4</title>
<polygon fill="none" stroke="black" points="2399.25,-1786.5 2334.75,-1786.5 2334.75,-1751.5 2399.25,-1751.5 2399.25,-1786.5"/>
<text text-anchor="middle" x="2367" y="-1776.1" font-family="Times,serif" font-size="8.00">_start</text>
<text text-anchor="end" x="2391.5" y="-1767.1" font-family="Times,serif" font-size="8.00">0 (0.0%)</text>
<text text-anchor="end" x="2391.5" y="-1758.1" font-family="Times,serif" font-size="8.00">of 601 (99.2%)</text>
</g>
<!-- N4&#45;&gt;N1 -->
<g id="edge1" class="edge"><title>N4&#45;&gt;N1</title>
<path fill="none" stroke="black" stroke-width="2" d="M2367,-1751.47C2367,-1728.23 2367,-1685.61 2367,-1657.8"/>
<polygon fill="black" stroke="black" stroke-width="2" points="2370.5,-1657.58 2367,-1647.58 2363.5,-1657.58 2370.5,-1657.58"/>
<text text-anchor="middle" x="2377.5" y="-1670.3" font-family="Times,serif" font-size="14.00">601</text>
</g>
<!-- N5 -->
<g id="node6" class="node"><title>N5</title>
<polygon fill="none" stroke="black" points="2446.25,-1146 2287.75,-1146 2287.75,-1038 2446.25,-1038 2446.25,-1146"/>
<text text-anchor="middle" x="2367" y="-1127.44" font-family="Times,serif" font-size="18.20">nnet_prof</text>
<text text-anchor="middle" x="2367" y="-1107.44" font-family="Times,serif" font-size="18.20">main</text>
<text text-anchor="middle" x="2367" y="-1087.44" font-family="Times,serif" font-size="18.20">h98fbe0945c33fbf0</text>
<text text-anchor="end" x="2438.5" y="-1067.44" font-family="Times,serif" font-size="18.20">25 (4.1%)</text>
<text text-anchor="end" x="2438.5" y="-1047.44" font-family="Times,serif" font-size="18.20">of 601 (99.2%)</text>
</g>
<!-- N8 -->
<g id="node9" class="node"><title>N8</title>
<polygon fill="none" stroke="black" points="2841.5,-985.5 1892.5,-985.5 1892.5,-832.5 2841.5,-832.5 2841.5,-985.5"/>
<text text-anchor="middle" x="2367" y="-960.54" font-family="Times,serif" font-size="26.20">_$LT$rusty_machine..learning..nnet..BaseNeuralNet$LT$$u27$a$C$$u20$T$GT$$GT$</text>
<text text-anchor="middle" x="2367" y="-931.54" font-family="Times,serif" font-size="26.20">compute_grad</text>
<text text-anchor="middle" x="2367" y="-902.54" font-family="Times,serif" font-size="26.20">h1c50c7c9cddef629</text>
<text text-anchor="end" x="2834" y="-873.54" font-family="Times,serif" font-size="26.20">80 (13.2%)</text>
<text text-anchor="end" x="2834" y="-844.54" font-family="Times,serif" font-size="26.20">of 513 (84.7%)</text>
</g>
<!-- N5&#45;&gt;N8 -->
<g id="edge7" class="edge"><title>N5&#45;&gt;N8</title>
<path fill="none" stroke="black" stroke-width="2" d="M2367,-1037.67C2367,-1024.58 2367,-1010.24 2367,-996.038"/>
<polygon fill="black" stroke="black" stroke-width="2" points="2370.5,-995.744 2367,-985.744 2363.5,-995.744 2370.5,-995.744"/>
<text text-anchor="middle" x="2377.5" y="-1008.3" font-family="Times,serif" font-size="14.00">513</text>
</g>
<!-- N15 -->
<g id="node16" class="node"><title>N15</title>
<polygon fill="none" stroke="black" points="3885.25,-963 2860.75,-963 2860.75,-855 3885.25,-855 3885.25,-963"/>
<text text-anchor="middle" x="3373" y="-940.52" font-family="Times,serif" font-size="23.10">_$LT$$RF$$u27$a$u20$rulinalg..vector..Vector$LT$T$GT$$u20$as$u20$core..ops..Mul$LT$T$GT$$GT$</text>
<text text-anchor="middle" x="3373" y="-915.52" font-family="Times,serif" font-size="23.10">mul</text>
<text text-anchor="middle" x="3373" y="-890.52" font-family="Times,serif" font-size="23.10">h606acf85401c2aca</text>
<text text-anchor="end" x="3877.5" y="-865.52" font-family="Times,serif" font-size="23.10">55 (9.1%)</text>
</g>
<!-- N5&#45;&gt;N15 -->
<g id="edge14" class="edge"><title>N5&#45;&gt;N15</title>
<path fill="none" stroke="black" d="M2446.36,-1076.72C2579.04,-1052.85 2852.6,-1003.63 3068.27,-964.828"/>
<polygon fill="black" stroke="black" points="3068.95,-968.262 3078.17,-963.046 3067.71,-961.373 3068.95,-968.262"/>
<text text-anchor="middle" x="2846" y="-1008.3" font-family="Times,serif" font-size="14.00">55</text>
</g>
<!-- N22 -->
<g id="node23" class="node"><title>N22</title>
<polygon fill="none" stroke="black" points="847,-335 739,-335 739,-267 847,-267 847,-335"/>
<text text-anchor="middle" x="793" y="-316.28" font-family="Times,serif" font-size="18.40">sdallocx</text>
<text text-anchor="end" x="839" y="-296.28" font-family="Times,serif" font-size="18.40">26 (4.3%)</text>
<text text-anchor="end" x="839" y="-276.28" font-family="Times,serif" font-size="18.40">of 27 (4.5%)</text>
</g>
<!-- N5&#45;&gt;N22 -->
<g id="edge37" class="edge"><title>N5&#45;&gt;N22</title>
<path fill="none" stroke="black" d="M2287.57,-1089.18C1875.48,-1079.21 0,-1027.39 0,-910 0,-910 0,-910 0,-520 0,-369.196 539.932,-318.834 728.746,-305.832"/>
<polygon fill="black" stroke="black" points="729.065,-309.319 738.806,-305.152 728.593,-302.335 729.065,-309.319"/>
<text text-anchor="middle" x="3.5" y="-712.3" font-family="Times,serif" font-size="14.00">2</text>
</g>
<!-- N6&#45;&gt;N5 -->
<g id="edge3" class="edge"><title>N6&#45;&gt;N5</title>
<path fill="none" stroke="black" stroke-width="2" d="M2367,-1198.39C2367,-1185.69 2367,-1170.87 2367,-1156.43"/>
<polygon fill="black" stroke="black" stroke-width="2" points="2370.5,-1156.02 2367,-1146.02 2363.5,-1156.02 2370.5,-1156.02"/>
<text text-anchor="middle" x="2377.5" y="-1168.3" font-family="Times,serif" font-size="14.00">601</text>
</g>
<!-- N7&#45;&gt;N2 -->
<g id="edge4" class="edge"><title>N7&#45;&gt;N2</title>
<path fill="none" stroke="black" stroke-width="2" d="M2367,-1497.76C2367,-1484.34 2367,-1468.69 2367,-1455.71"/>
<polygon fill="black" stroke="black" stroke-width="2" points="2370.5,-1455.55 2367,-1445.55 2363.5,-1455.55 2370.5,-1455.55"/>
<text text-anchor="middle" x="2377.5" y="-1468.3" font-family="Times,serif" font-size="14.00">601</text>
</g>
<!-- N11 -->
<g id="node12" class="node"><title>N11</title>
<polygon fill="none" stroke="black" points="2796.25,-772 1937.75,-772 1937.75,-660 2796.25,-660 2796.25,-772"/>
<text text-anchor="middle" x="2367" y="-758.32" font-family="Times,serif" font-size="12.10">rulinalg</text>
<text text-anchor="middle" x="2367" y="-745.32" font-family="Times,serif" font-size="12.10">matrix</text>
<text text-anchor="middle" x="2367" y="-732.32" font-family="Times,serif" font-size="12.10">mat_mul</text>
<text text-anchor="middle" x="2367" y="-719.32" font-family="Times,serif" font-size="12.10">_$LT$impl$u20$core..ops..Mul$LT$$RF$$u27$b$u20$rulinalg..matrix..Matrix$LT$T$GT$$GT$$u20$for$u20$$RF$$u27$a$u20$rulinalg..matrix..Matrix$LT$T$GT$$GT$</text>
<text text-anchor="middle" x="2367" y="-706.32" font-family="Times,serif" font-size="12.10">mul</text>
<text text-anchor="middle" x="2367" y="-693.32" font-family="Times,serif" font-size="12.10">h6446fee69398d4da</text>
<text text-anchor="end" x="2788.5" y="-680.32" font-family="Times,serif" font-size="12.10">4 (0.7%)</text>
<text text-anchor="end" x="2788.5" y="-667.32" font-family="Times,serif" font-size="12.10">of 119 (19.6%)</text>
</g>
<!-- N8&#45;&gt;N11 -->
<g id="edge9" class="edge"><title>N8&#45;&gt;N11</title>
<path fill="none" stroke="black" stroke-width="1.17822" d="M2367,-832.237C2367,-815.748 2367,-798.438 2367,-782.391"/>
<polygon fill="black" stroke="black" stroke-width="1.17822" points="2370.5,-782.049 2367,-772.049 2363.5,-782.049 2370.5,-782.049"/>
<text text-anchor="middle" x="2377.5" y="-802.3" font-family="Times,serif" font-size="14.00">119</text>
</g>
<!-- N12 -->
<g id="node13" class="node"><title>N12</title>
<polygon fill="none" stroke="black" points="4271,-780 3493,-780 3493,-652 4271,-652 4271,-780"/>
<text text-anchor="middle" x="3882" y="-758.8" font-family="Times,serif" font-size="21.50">_$LT$rusty_machine..learning..toolkit..regularization..Regularization$LT$T$GT$$GT$</text>
<text text-anchor="middle" x="3882" y="-734.8" font-family="Times,serif" font-size="21.50">l2_reg_grad</text>
<text text-anchor="middle" x="3882" y="-710.8" font-family="Times,serif" font-size="21.50">h99933c247c646296</text>
<text text-anchor="end" x="4263" y="-686.8" font-family="Times,serif" font-size="21.50">44 (7.3%)</text>
<text text-anchor="end" x="4263" y="-662.8" font-family="Times,serif" font-size="21.50">of 85 (14.0%)</text>
</g>
<!-- N8&#45;&gt;N12 -->
<g id="edge11" class="edge"><title>N8&#45;&gt;N12</title>
<path fill="none" stroke="black" d="M2841.78,-832.967C2845.2,-832.636 2848.61,-832.314 2852,-832 3127.83,-806.507 3200.38,-850.3 3475,-814 3530.28,-806.693 3589.01,-795.045 3644.14,-782.318"/>
<polygon fill="black" stroke="black" points="3645.08,-785.692 3654.03,-780.015 3643.49,-778.875 3645.08,-785.692"/>
<text text-anchor="middle" x="3572" y="-802.3" font-family="Times,serif" font-size="14.00">85</text>
</g>
<!-- N13 -->
<g id="node14" class="node"><title>N13</title>
<polygon fill="none" stroke="black" points="1547.25,-756 902.75,-756 902.75,-676 1547.25,-676 1547.25,-756"/>
<text text-anchor="middle" x="1225" y="-745.6" font-family="Times,serif" font-size="8.00">rulinalg</text>
<text text-anchor="middle" x="1225" y="-736.6" font-family="Times,serif" font-size="8.00">matrix</text>
<text text-anchor="middle" x="1225" y="-727.6" font-family="Times,serif" font-size="8.00">mat_mul</text>
<text text-anchor="middle" x="1225" y="-718.6" font-family="Times,serif" font-size="8.00">_$LT$impl$u20$core..ops..Mul$LT$$RF$$u27$c$u20$rulinalg..matrix..MatrixSlice$LT$$u27$a$C$$u20$T$GT$$GT$$u20$for$u20$$RF$$u27$b$u20$rulinalg..matrix..Matrix$LT$T$GT$$GT$</text>
<text text-anchor="middle" x="1225" y="-709.6" font-family="Times,serif" font-size="8.00">mul</text>
<text text-anchor="middle" x="1225" y="-700.6" font-family="Times,serif" font-size="8.00">hb845ec196626ea17</text>
<text text-anchor="end" x="1539.5" y="-691.6" font-family="Times,serif" font-size="8.00">0 (0.0%)</text>
<text text-anchor="end" x="1539.5" y="-682.6" font-family="Times,serif" font-size="8.00">of 75 (12.4%)</text>
</g>
<!-- N8&#45;&gt;N13 -->
<g id="edge12" class="edge"><title>N8&#45;&gt;N13</title>
<path fill="none" stroke="black" d="M1892.45,-835.674C1781.91,-818.114 1664.75,-798.926 1556,-780 1516.73,-773.166 1474.92,-765.508 1434.71,-757.948"/>
<polygon fill="black" stroke="black" points="1435.27,-754.492 1424.79,-756.08 1433.97,-761.371 1435.27,-754.492"/>
<text text-anchor="middle" x="1763" y="-802.3" font-family="Times,serif" font-size="14.00">75</text>
</g>
<!-- N16 -->
<g id="node17" class="node"><title>N16</title>
<polygon fill="none" stroke="black" points="4017.25,-565 3746.75,-565 3746.75,-477 4017.25,-477 4017.25,-565"/>
<text text-anchor="middle" x="3882" y="-549.72" font-family="Times,serif" font-size="14.10">_$LT$collections..vec..Vec$LT$T$GT$$GT$</text>
<text text-anchor="middle" x="3882" y="-533.72" font-family="Times,serif" font-size="14.10">reserve</text>
<text text-anchor="middle" x="3882" y="-517.72" font-family="Times,serif" font-size="14.10">h030400045ce3f5d3</text>
<text text-anchor="end" x="4009.5" y="-501.72" font-family="Times,serif" font-size="14.10">9 (1.5%)</text>
<text text-anchor="end" x="4009.5" y="-485.72" font-family="Times,serif" font-size="14.10">of 54 (8.9%)</text>
</g>
<!-- N8&#45;&gt;N16 -->
<g id="edge24" class="edge"><title>N8&#45;&gt;N16</title>
<path fill="none" stroke="black" d="M2841.81,-833.264C2845.22,-832.837 2848.62,-832.416 2852,-832 2980.88,-816.162 3334.09,-862.94 3434,-780 3479.47,-742.253 3428.88,-694.44 3470,-652 3539.48,-580.296 3648.11,-548.013 3736.38,-533.541"/>
<polygon fill="black" stroke="black" points="3737.16,-536.961 3746.49,-531.945 3736.07,-530.046 3737.16,-536.961"/>
<text text-anchor="middle" x="3477" y="-712.3" font-family="Times,serif" font-size="14.00">11</text>
</g>
<!-- N19 -->
<g id="node20" class="node"><title>N19</title>
<polygon fill="none" stroke="black" points="5108.25,-760 4289.75,-760 4289.75,-672 5108.25,-672 5108.25,-760"/>
<text text-anchor="middle" x="4699" y="-744.48" font-family="Times,serif" font-size="14.40">_$LT$rusty_machine..learning..toolkit..activ_fn..Sigmoid$u20$as$u20$rusty_machine..learning..toolkit..activ_fn..ActivationFunc$GT$</text>
<text text-anchor="middle" x="4699" y="-728.48" font-family="Times,serif" font-size="14.40">func_grad</text>
<text text-anchor="middle" x="4699" y="-712.48" font-family="Times,serif" font-size="14.40">h79054b0e229eb153</text>
<text text-anchor="end" x="5100.5" y="-696.48" font-family="Times,serif" font-size="14.40">10 (1.7%)</text>
<text text-anchor="end" x="5100.5" y="-680.48" font-family="Times,serif" font-size="14.40">of 40 (6.6%)</text>
</g>
<!-- N8&#45;&gt;N19 -->
<g id="edge18" class="edge"><title>N8&#45;&gt;N19</title>
<path fill="none" stroke="black" d="M2841.78,-832.946C2845.2,-832.622 2848.6,-832.307 2852,-832 3175.67,-802.782 3258.23,-825.918 3583,-814 3892.94,-802.626 3971.37,-810.652 4280,-780 4328.81,-775.152 4380.62,-768.556 4430.55,-761.451"/>
<polygon fill="black" stroke="black" points="4431.11,-764.906 4440.52,-760.023 4430.12,-757.977 4431.11,-764.906"/>
<text text-anchor="middle" x="4058" y="-802.3" font-family="Times,serif" font-size="14.00">40</text>
</g>
<!-- N20 -->
<g id="node21" class="node"><title>N20</title>
<polygon fill="none" stroke="black" points="5789,-752.5 5127,-752.5 5127,-679.5 5789,-679.5 5789,-752.5"/>
<text text-anchor="middle" x="5458" y="-738.82" font-family="Times,serif" font-size="12.10">_$LT$rusty_machine..learning..toolkit..activ_fn..Sigmoid$u20$as$u20$rusty_machine..learning..toolkit..activ_fn..ActivationFunc$GT$</text>
<text text-anchor="middle" x="5458" y="-725.82" font-family="Times,serif" font-size="12.10">func</text>
<text text-anchor="middle" x="5458" y="-712.82" font-family="Times,serif" font-size="12.10">h19daae47c8fdf685</text>
<text text-anchor="end" x="5781" y="-699.82" font-family="Times,serif" font-size="12.10">4 (0.7%)</text>
<text text-anchor="end" x="5781" y="-686.82" font-family="Times,serif" font-size="12.10">of 38 (6.3%)</text>
</g>
<!-- N8&#45;&gt;N20 -->
<g id="edge19" class="edge"><title>N8&#45;&gt;N20</title>
<path fill="none" stroke="black" d="M2841.77,-832.898C2845.19,-832.589 2848.6,-832.29 2852,-832 3121.49,-809.007 3798.6,-820.385 4069,-814 4534.89,-802.998 4653.67,-830.029 5117,-780 5171.52,-774.113 5230.41,-764.441 5283.66,-754.421"/>
<polygon fill="black" stroke="black" points="5284.36,-757.85 5293.53,-752.547 5283.05,-750.973 5284.36,-757.85"/>
<text text-anchor="middle" x="4925" y="-802.3" font-family="Times,serif" font-size="14.00">38</text>
</g>
<!-- N8&#45;&gt;N22 -->
<g id="edge23" class="edge"><title>N8&#45;&gt;N22</title>
<path fill="none" stroke="black" d="M1892.29,-892.801C1465.2,-876.9 898.89,-849.337 861,-814 826.825,-782.128 803.218,-462.67 795.629,-345.117"/>
<polygon fill="black" stroke="black" points="799.115,-344.796 794.985,-335.039 792.13,-345.242 799.115,-344.796"/>
<text text-anchor="middle" x="828" y="-622.3" font-family="Times,serif" font-size="14.00">17</text>
</g>
<!-- N23 -->
<g id="node24" class="node"><title>N23</title>
<polygon fill="none" stroke="black" points="2875.25,-332 2774.75,-332 2774.75,-270 2875.25,-270 2875.25,-332"/>
<text text-anchor="middle" x="2825" y="-314.72" font-family="Times,serif" font-size="16.60">mallocx</text>
<text text-anchor="end" x="2867.5" y="-296.72" font-family="Times,serif" font-size="16.60">18 (3.0%)</text>
<text text-anchor="end" x="2867.5" y="-278.72" font-family="Times,serif" font-size="16.60">of 19 (3.1%)</text>
</g>
<!-- N8&#45;&gt;N23 -->
<g id="edge27" class="edge"><title>N8&#45;&gt;N23</title>
<path fill="none" stroke="black" d="M2713.53,-832.483C2755.96,-817.029 2789.77,-799.456 2805,-780 2857.66,-712.726 2838.6,-444.9 2829.08,-342.289"/>
<polygon fill="black" stroke="black" points="2832.54,-341.658 2828.11,-332.032 2825.57,-342.317 2832.54,-341.658"/>
<text text-anchor="middle" x="2842.5" y="-622.3" font-family="Times,serif" font-size="14.00">8</text>
</g>
<!-- N24 -->
<g id="node25" class="node"><title>N24</title>
<polygon fill="none" stroke="black" points="1834.25,-42 1649.75,-42 1649.75,-3.55271e-15 1834.25,-3.55271e-15 1834.25,-42"/>
<text text-anchor="middle" x="1742" y="-25.52" font-family="Times,serif" font-size="15.60">__memcpy_sse2_unaligned</text>
<text text-anchor="end" x="1826.5" y="-8.52" font-family="Times,serif" font-size="15.60">14 (2.3%)</text>
</g>
<!-- N8&#45;&gt;N24 -->
<g id="edge28" class="edge"><title>N8&#45;&gt;N24</title>
<path fill="none" stroke="black" d="M1892.19,-893.379C1491,-876.701 969.578,-843.145 893,-780 870.533,-761.474 875,-746.12 875,-717 875,-717 875,-717 875,-126 875,-49.7699 1410.2,-29.1262 1639.6,-23.779"/>
<polygon fill="black" stroke="black" points="1639.71,-27.2776 1649.63,-23.5506 1639.55,-20.2794 1639.71,-27.2776"/>
<text text-anchor="middle" x="878.5" y="-412.3" font-family="Times,serif" font-size="14.00">7</text>
</g>
<!-- N25 -->
<g id="node26" class="node"><title>N25</title>
<polygon fill="none" stroke="black" points="1918.5,-750 1565.5,-750 1565.5,-682 1918.5,-682 1918.5,-750"/>
<text text-anchor="middle" x="1742" y="-737.28" font-family="Times,serif" font-size="10.90">_$LT$collections..vec..Vec$LT$T$GT$$u20$as$u20$core..clone..Clone$GT$</text>
<text text-anchor="middle" x="1742" y="-725.28" font-family="Times,serif" font-size="10.90">clone</text>
<text text-anchor="middle" x="1742" y="-713.28" font-family="Times,serif" font-size="10.90">h36c316f8b85f5919</text>
<text text-anchor="end" x="1911" y="-701.28" font-family="Times,serif" font-size="10.90">2 (0.3%)</text>
<text text-anchor="end" x="1911" y="-689.28" font-family="Times,serif" font-size="10.90">of 9 (1.5%)</text>
</g>
<!-- N8&#45;&gt;N25 -->
<g id="edge25" class="edge"><title>N8&#45;&gt;N25</title>
<path fill="none" stroke="black" d="M2101.22,-832.494C2043.95,-815.668 1983.84,-797.59 1928,-780 1901.64,-771.699 1873.33,-762.339 1846.95,-753.423"/>
<polygon fill="black" stroke="black" points="1847.92,-750.056 1837.32,-750.161 1845.67,-756.686 1847.92,-750.056"/>
<text text-anchor="middle" x="2039.5" y="-802.3" font-family="Times,serif" font-size="14.00">9</text>
</g>
<!-- N26 -->
<g id="node27" class="node"><title>N26</title>
<polygon fill="none" stroke="black" points="809.25,-747.5 24.75,-747.5 24.75,-684.5 809.25,-684.5 809.25,-747.5"/>
<text text-anchor="middle" x="417" y="-735.5" font-family="Times,serif" font-size="10.00">_$LT$rusty_machine..learning..toolkit..cost_fn..CrossEntropyError$u20$as$u20$rusty_machine..learning..toolkit..cost_fn..CostFunc$LT$rulinalg..matrix..Matrix$LT$f64$GT$$GT$$GT$</text>
<text text-anchor="middle" x="417" y="-724.5" font-family="Times,serif" font-size="10.00">cost</text>
<text text-anchor="middle" x="417" y="-713.5" font-family="Times,serif" font-size="10.00">he959e0840d873014</text>
<text text-anchor="end" x="801.5" y="-702.5" font-family="Times,serif" font-size="10.00">1 (0.2%)</text>
<text text-anchor="end" x="801.5" y="-691.5" font-family="Times,serif" font-size="10.00">of 8 (1.3%)</text>
</g>
<!-- N8&#45;&gt;N26 -->
<g id="edge26" class="edge"><title>N8&#45;&gt;N26</title>
<path fill="none" stroke="black" d="M1892.11,-901.071C1583.94,-891.204 1174.45,-867.994 816,-814 718.484,-799.311 609.851,-772.174 530.589,-750.33"/>
<polygon fill="black" stroke="black" points="531.155,-746.855 520.583,-747.558 529.286,-753.601 531.155,-746.855"/>
<text text-anchor="middle" x="819.5" y="-802.3" font-family="Times,serif" font-size="14.00">8</text>
</g>
<!-- N28 -->
<g id="node29" class="node"><title>N28</title>
<polygon fill="none" stroke="black" points="3425,-748 2973,-748 2973,-684 3425,-684 3425,-748"/>
<text text-anchor="middle" x="3199" y="-734" font-family="Times,serif" font-size="12.50">_$LT$rusty_machine..learning..toolkit..regularization..Regularization$LT$T$GT$$GT$</text>
<text text-anchor="middle" x="3199" y="-720" font-family="Times,serif" font-size="12.50">l2_reg_cost</text>
<text text-anchor="middle" x="3199" y="-706" font-family="Times,serif" font-size="12.50">h9328a07f9afe0dc3</text>
<text text-anchor="end" x="3417" y="-692" font-family="Times,serif" font-size="12.50">5 (0.8%)</text>
</g>
<!-- N8&#45;&gt;N28 -->
<g id="edge32" class="edge"><title>N8&#45;&gt;N28</title>
<path fill="none" stroke="black" d="M2784.56,-832.464C2812.18,-826.505 2839.53,-820.333 2866,-814 2942.17,-795.776 3026.91,-771.03 3091.84,-751.093"/>
<polygon fill="black" stroke="black" points="3093.15,-754.351 3101.68,-748.063 3091.09,-747.662 3093.15,-754.351"/>
<text text-anchor="middle" x="2924.5" y="-802.3" font-family="Times,serif" font-size="14.00">5</text>
</g>
<!-- N30 -->
<g id="node31" class="node"><title>N30</title>
<polygon fill="none" stroke="black" points="2954.25,-764 2853.75,-764 2853.75,-668 2954.25,-668 2954.25,-764"/>
<text text-anchor="middle" x="2904" y="-752" font-family="Times,serif" font-size="10.00">rulinalg</text>
<text text-anchor="middle" x="2904" y="-741" font-family="Times,serif" font-size="10.00">matrix</text>
<text text-anchor="middle" x="2904" y="-730" font-family="Times,serif" font-size="10.00">slice</text>
<text text-anchor="middle" x="2904" y="-719" font-family="Times,serif" font-size="10.00">BaseMatrix</text>
<text text-anchor="middle" x="2904" y="-708" font-family="Times,serif" font-size="10.00">hcat</text>
<text text-anchor="middle" x="2904" y="-697" font-family="Times,serif" font-size="10.00">h6f49154319dd1e2f</text>
<text text-anchor="end" x="2946.5" y="-686" font-family="Times,serif" font-size="10.00">1 (0.2%)</text>
<text text-anchor="end" x="2946.5" y="-675" font-family="Times,serif" font-size="10.00">of 4 (0.7%)</text>
</g>
<!-- N8&#45;&gt;N30 -->
<g id="edge34" class="edge"><title>N8&#45;&gt;N30</title>
<path fill="none" stroke="black" d="M2800.57,-832.422C2816.26,-826.58 2829.36,-820.435 2839,-814 2854.51,-803.651 2867.26,-788.218 2877.24,-772.691"/>
<polygon fill="black" stroke="black" points="2880.27,-774.444 2882.5,-764.086 2874.3,-770.795 2880.27,-774.444"/>
<text text-anchor="middle" x="2858.5" y="-802.3" font-family="Times,serif" font-size="14.00">4</text>
</g>
<!-- N9 -->
<g id="node10" class="node"><title>N9</title>
<polygon fill="none" stroke="black" points="2466.25,-600 2267.75,-600 2267.75,-442 2466.25,-442 2466.25,-600"/>
<text text-anchor="middle" x="2367" y="-577.92" font-family="Times,serif" font-size="22.60">matrixmultiply</text>
<text text-anchor="middle" x="2367" y="-552.92" font-family="Times,serif" font-size="22.60">gemm</text>
<text text-anchor="middle" x="2367" y="-527.92" font-family="Times,serif" font-size="22.60">dgemm</text>
<text text-anchor="middle" x="2367" y="-502.92" font-family="Times,serif" font-size="22.60">h2d985771431fcfd4</text>
<text text-anchor="end" x="2458.5" y="-477.92" font-family="Times,serif" font-size="22.60">52 (8.6%)</text>
<text text-anchor="end" x="2458.5" y="-452.92" font-family="Times,serif" font-size="22.60">of 189 (31.2%)</text>
</g>
<!-- N10 -->
<g id="node11" class="node"><title>N10</title>
<polygon fill="none" stroke="black" points="2501.25,-390 2232.75,-390 2232.75,-212 2501.25,-212 2501.25,-390"/>
<text text-anchor="middle" x="2367" y="-361.2" font-family="Times,serif" font-size="31.00">matrixmultiply</text>
<text text-anchor="middle" x="2367" y="-327.2" font-family="Times,serif" font-size="31.00">gemm</text>
<text text-anchor="middle" x="2367" y="-293.2" font-family="Times,serif" font-size="31.00">masked_kernel</text>
<text text-anchor="middle" x="2367" y="-259.2" font-family="Times,serif" font-size="31.00">hfdb4f50027c4d91c</text>
<text text-anchor="end" x="2493.5" y="-225.2" font-family="Times,serif" font-size="31.00">128 (21.1%)</text>
</g>
<!-- N9&#45;&gt;N10 -->
<g id="edge8" class="edge"><title>N9&#45;&gt;N10</title>
<path fill="none" stroke="black" stroke-width="1.25743" d="M2367,-441.913C2367,-428.444 2367,-414.289 2367,-400.367"/>
<polygon fill="black" stroke="black" stroke-width="1.25743" points="2370.5,-400.285 2367,-390.285 2363.5,-400.285 2370.5,-400.285"/>
<text text-anchor="middle" x="2377.5" y="-412.3" font-family="Times,serif" font-size="14.00">127</text>
</g>
<!-- N9&#45;&gt;N22 -->
<g id="edge29" class="edge"><title>N9&#45;&gt;N22</title>
<path fill="none" stroke="black" d="M2267.64,-506.239C1971.65,-465.244 1101.19,-344.685 857.221,-310.895"/>
<polygon fill="black" stroke="black" points="857.485,-307.398 847.1,-309.493 856.525,-314.332 857.485,-307.398"/>
<text text-anchor="middle" x="1631.5" y="-412.3" font-family="Times,serif" font-size="14.00">6</text>
</g>
<!-- N9&#45;&gt;N23 -->
<g id="edge42" class="edge"><title>N9&#45;&gt;N23</title>
<path fill="none" stroke="black" d="M2466.38,-472.697C2557.46,-429.345 2689.33,-366.578 2765.19,-330.471"/>
<polygon fill="black" stroke="black" points="2767.08,-333.446 2774.6,-325.988 2764.07,-327.125 2767.08,-333.446"/>
<text text-anchor="middle" x="2599.5" y="-412.3" font-family="Times,serif" font-size="14.00">1</text>
</g>
<!-- N11&#45;&gt;N9 -->
<g id="edge10" class="edge"><title>N11&#45;&gt;N9</title>
<path fill="none" stroke="black" stroke-width="1.12871" d="M2367,-659.952C2367,-644.544 2367,-627.394 2367,-610.568"/>
<polygon fill="black" stroke="black" stroke-width="1.12871" points="2370.5,-610.152 2367,-600.152 2363.5,-610.152 2370.5,-610.152"/>
<text text-anchor="middle" x="2377.5" y="-622.3" font-family="Times,serif" font-size="14.00">114</text>
</g>
<!-- N11&#45;&gt;N23 -->
<g id="edge41" class="edge"><title>N11&#45;&gt;N23</title>
<path fill="none" stroke="black" d="M2599.37,-659.926C2613.42,-652.368 2626.78,-643.773 2639,-634 2736.6,-555.911 2791.53,-411.911 2813.55,-342.073"/>
<polygon fill="black" stroke="black" points="2816.96,-342.911 2816.56,-332.324 2810.27,-340.845 2816.96,-342.911"/>
<text text-anchor="middle" x="2778.5" y="-517.3" font-family="Times,serif" font-size="14.00">1</text>
</g>
<!-- N12&#45;&gt;N16 -->
<g id="edge17" class="edge"><title>N12&#45;&gt;N16</title>
<path fill="none" stroke="black" d="M3882,-651.805C3882,-627.097 3882,-599.07 3882,-575.398"/>
<polygon fill="black" stroke="black" points="3885.5,-575.2 3882,-565.2 3878.5,-575.2 3885.5,-575.2"/>
<text text-anchor="middle" x="3889" y="-622.3" font-family="Times,serif" font-size="14.00">41</text>
</g>
<!-- N13&#45;&gt;N9 -->
<g id="edge13" class="edge"><title>N13&#45;&gt;N9</title>
<path fill="none" stroke="black" d="M1424.81,-675.998C1468.03,-667.833 1513.51,-659.448 1556,-652 1806.48,-608.097 2101.54,-562.275 2257.52,-538.513"/>
<polygon fill="black" stroke="black" points="2258.23,-541.945 2267.59,-536.98 2257.18,-535.025 2258.23,-541.945"/>
<text text-anchor="middle" x="1741" y="-622.3" font-family="Times,serif" font-size="14.00">75</text>
</g>
<!-- N14 -->
<g id="node15" class="node"><title>N14</title>
<polygon fill="none" stroke="black" points="5503.25,-547.5 5412.75,-547.5 5412.75,-494.5 5503.25,-494.5 5503.25,-547.5"/>
<text text-anchor="middle" x="5458" y="-532.78" font-family="Times,serif" font-size="13.40">__GI___exp</text>
<text text-anchor="end" x="5495.5" y="-517.78" font-family="Times,serif" font-size="13.40">7 (1.2%)</text>
<text text-anchor="end" x="5495.5" y="-502.78" font-family="Times,serif" font-size="13.40">of 63 (10.4%)</text>
</g>
<!-- N17 -->
<g id="node18" class="node"><title>N17</title>
<polygon fill="none" stroke="black" points="5558,-341 5358,-341 5358,-261 5558,-261 5558,-341"/>
<text text-anchor="middle" x="5458" y="-319.32" font-family="Times,serif" font-size="22.10">__ieee754_exp_sse2</text>
<text text-anchor="end" x="5550" y="-295.32" font-family="Times,serif" font-size="22.10">48 (7.9%)</text>
<text text-anchor="end" x="5550" y="-271.32" font-family="Times,serif" font-size="22.10">of 53 (8.7%)</text>
</g>
<!-- N14&#45;&gt;N17 -->
<g id="edge15" class="edge"><title>N14&#45;&gt;N17</title>
<path fill="none" stroke="black" d="M5458,-494.136C5458,-459.053 5458,-395.68 5458,-351.341"/>
<polygon fill="black" stroke="black" points="5461.5,-351.068 5458,-341.068 5454.5,-351.068 5461.5,-351.068"/>
<text text-anchor="middle" x="5465" y="-412.3" font-family="Times,serif" font-size="14.00">53</text>
</g>
<!-- N18 -->
<g id="node19" class="node"><title>N18</title>
<polygon fill="none" stroke="black" points="3928.25,-329 3835.75,-329 3835.75,-273 3928.25,-273 3928.25,-329"/>
<text text-anchor="middle" x="3882" y="-313.24" font-family="Times,serif" font-size="14.70">rallocx</text>
<text text-anchor="end" x="3920.5" y="-297.24" font-family="Times,serif" font-size="14.70">11 (1.8%)</text>
<text text-anchor="end" x="3920.5" y="-281.24" font-family="Times,serif" font-size="14.70">of 44 (7.3%)</text>
</g>
<!-- N16&#45;&gt;N18 -->
<g id="edge16" class="edge"><title>N16&#45;&gt;N18</title>
<path fill="none" stroke="black" d="M3882,-476.93C3882,-436.779 3882,-377.509 3882,-339.323"/>
<polygon fill="black" stroke="black" points="3885.5,-339.145 3882,-329.145 3878.5,-339.145 3885.5,-339.145"/>
<text text-anchor="middle" x="3889" y="-412.3" font-family="Times,serif" font-size="14.00">44</text>
</g>
<!-- N29 -->
<g id="node30" class="node"><title>N29</title>
<polygon fill="none" stroke="black" points="5536,-152 5380,-152 5380,-102 5536,-102 5536,-152"/>
<text text-anchor="middle" x="5458" y="-138" font-family="Times,serif" font-size="12.50">libc_feholdsetround_sse_ctx</text>
<text text-anchor="middle" x="5458" y="-124" font-family="Times,serif" font-size="12.50">(inline)</text>
<text text-anchor="end" x="5528" y="-110" font-family="Times,serif" font-size="12.50">5 (0.8%)</text>
</g>
<!-- N17&#45;&gt;N29 -->
<g id="edge33" class="edge"><title>N17&#45;&gt;N29</title>
<path fill="none" stroke="black" stroke-dasharray="5,2" d="M5458,-260.971C5458,-231.264 5458,-190.773 5458,-162.302"/>
<polygon fill="black" stroke="black" points="5461.5,-162.026 5458,-152.026 5454.5,-162.026 5461.5,-162.026"/>
<text text-anchor="middle" x="5461.5" y="-182.3" font-family="Times,serif" font-size="14.00">5</text>
</g>
<!-- N21 -->
<g id="node22" class="node"><title>N21</title>
<polygon fill="none" stroke="black" points="3941.5,-159.5 3822.5,-159.5 3822.5,-94.5 3941.5,-94.5 3941.5,-159.5"/>
<text text-anchor="middle" x="3882" y="-141.98" font-family="Times,serif" font-size="16.90">je_arena_ralloc</text>
<text text-anchor="end" x="3934" y="-122.98" font-family="Times,serif" font-size="16.90">19 (3.1%)</text>
<text text-anchor="end" x="3934" y="-103.98" font-family="Times,serif" font-size="16.90">of 33 (5.4%)</text>
</g>
<!-- N18&#45;&gt;N21 -->
<g id="edge20" class="edge"><title>N18&#45;&gt;N21</title>
<path fill="none" stroke="black" d="M3882,-272.746C3882,-245.087 3882,-201.899 3882,-169.889"/>
<polygon fill="black" stroke="black" points="3885.5,-169.501 3882,-159.501 3878.5,-169.501 3885.5,-169.501"/>
<text text-anchor="middle" x="3889" y="-182.3" font-family="Times,serif" font-size="14.00">33</text>
</g>
<!-- N19&#45;&gt;N14 -->
<g id="edge22" class="edge"><title>N19&#45;&gt;N14</title>
<path fill="none" stroke="black" d="M4868.39,-671.927C5038.71,-628.618 5291.47,-564.345 5402.4,-536.138"/>
<polygon fill="black" stroke="black" points="5403.54,-539.46 5412.37,-533.603 5401.82,-532.675 5403.54,-539.46"/>
<text text-anchor="middle" x="5085" y="-622.3" font-family="Times,serif" font-size="14.00">30</text>
</g>
<!-- N20&#45;&gt;N14 -->
<g id="edge21" class="edge"><title>N20&#45;&gt;N14</title>
<path fill="none" stroke="black" d="M5458,-679.15C5458,-644.573 5458,-592.525 5458,-557.923"/>
<polygon fill="black" stroke="black" points="5461.5,-557.783 5458,-547.783 5454.5,-557.783 5461.5,-557.783"/>
<text text-anchor="middle" x="5465" y="-622.3" font-family="Times,serif" font-size="14.00">33</text>
</g>
<!-- N21&#45;&gt;N24 -->
<g id="edge31" class="edge"><title>N21&#45;&gt;N24</title>
<path fill="none" stroke="black" d="M3822.25,-123.096C3526.85,-108.74 2221.6,-45.3079 1844.41,-26.9768"/>
<polygon fill="black" stroke="black" points="1844.48,-23.4764 1834.32,-26.4868 1844.14,-30.4682 1844.48,-23.4764"/>
<text text-anchor="middle" x="2815.5" y="-64.3" font-family="Times,serif" font-size="14.00">6</text>
</g>
<!-- N27 -->
<g id="node28" class="node"><title>N27</title>
<polygon fill="none" stroke="black" points="3960,-39 3804,-39 3804,-3 3960,-3 3960,-39"/>
<text text-anchor="middle" x="3882" y="-24.6" font-family="Times,serif" font-size="13.00">je_arena_ralloc_no_move</text>
<text text-anchor="end" x="3952" y="-10.6" font-family="Times,serif" font-size="13.00">6 (1.0%)</text>
</g>
<!-- N21&#45;&gt;N27 -->
<g id="edge30" class="edge"><title>N21&#45;&gt;N27</title>
<path fill="none" stroke="black" d="M3882,-94.2315C3882,-79.9025 3882,-63.1452 3882,-49.3803"/>
<polygon fill="black" stroke="black" points="3885.5,-49.0861 3882,-39.0861 3878.5,-49.0861 3885.5,-49.0861"/>
<text text-anchor="middle" x="3885.5" y="-64.3" font-family="Times,serif" font-size="14.00">6</text>
</g>
<!-- N25&#45;&gt;N23 -->
<g id="edge35" class="edge"><title>N25&#45;&gt;N23</title>
<path fill="none" stroke="black" d="M1823.05,-681.889C1855.18,-670.27 1892.8,-658.503 1928,-652 2130.94,-614.509 2190.32,-677.784 2392,-634 2430.96,-625.543 2440.95,-620.736 2475,-600 2491.91,-589.699 2693.05,-416.191 2782.53,-338.779"/>
<polygon fill="black" stroke="black" points="2785.05,-341.23 2790.32,-332.04 2780.47,-335.936 2785.05,-341.23"/>
<text text-anchor="middle" x="2661.5" y="-517.3" font-family="Times,serif" font-size="14.00">3</text>
</g>
<!-- N25&#45;&gt;N24 -->
<g id="edge40" class="edge"><title>N25&#45;&gt;N24</title>
<path fill="none" stroke="black" d="M1742,-681.873C1742,-643.429 1742,-578.124 1742,-522 1742,-522 1742,-522 1742,-126 1742,-101.246 1742,-73.1768 1742,-52.4437"/>
<polygon fill="black" stroke="black" points="1745.5,-52.3266 1742,-42.3267 1738.5,-52.3267 1745.5,-52.3266"/>
<text text-anchor="middle" x="1745.5" y="-297.3" font-family="Times,serif" font-size="14.00">1</text>
</g>
<!-- N26&#45;&gt;N22 -->
<g id="edge38" class="edge"><title>N26&#45;&gt;N22</title>
<path fill="none" stroke="black" d="M444.954,-684.295C511.728,-610.95 680.541,-425.526 755.798,-342.863"/>
<polygon fill="black" stroke="black" points="758.638,-344.942 762.782,-335.191 753.462,-340.229 758.638,-344.942"/>
<text text-anchor="middle" x="664.5" y="-517.3" font-family="Times,serif" font-size="14.00">2</text>
</g>
<!-- N30&#45;&gt;N16 -->
<g id="edge39" class="edge"><title>N30&#45;&gt;N16</title>
<path fill="none" stroke="black" d="M2941.83,-667.74C2948.62,-661.622 2956.08,-656.077 2964,-652 3095.71,-584.226 3512.52,-546.71 3736.42,-530.974"/>
<polygon fill="black" stroke="black" points="3736.87,-534.451 3746.6,-530.264 3736.38,-527.468 3736.87,-534.451"/>
<text text-anchor="middle" x="3054.5" y="-622.3" font-family="Times,serif" font-size="14.00">1</text>
</g>
<!-- N30&#45;&gt;N23 -->
<g id="edge36" class="edge"><title>N30&#45;&gt;N23</title>
<path fill="none" stroke="black" d="M2894.94,-667.624C2879.28,-585.769 2847.43,-419.275 2832.74,-342.475"/>
<polygon fill="black" stroke="black" points="2836.1,-341.416 2830.79,-332.251 2829.23,-342.731 2836.1,-341.416"/>
<text text-anchor="middle" x="2884.5" y="-517.3" font-family="Times,serif" font-size="14.00">2</text>
</g>
</g>
</g></svg>
