<?xml version="1.0" encoding="UTF-8" standalone="no"?>
<svg
   xmlns:dc="http://purl.org/dc/elements/1.1/"
   xmlns:cc="http://creativecommons.org/ns#"
   xmlns:rdf="http://www.w3.org/1999/02/22-rdf-syntax-ns#"
   xmlns:svg="http://www.w3.org/2000/svg"
   xmlns="http://www.w3.org/2000/svg"
   xmlns:sodipodi="http://sodipodi.sourceforge.net/DTD/sodipodi-0.dtd"
   xmlns:inkscape="http://www.inkscape.org/namespaces/inkscape"
   version="1.1"
   viewBox="0 0 720 400"
   stroke-miterlimit="10"
   id="svg2"
   inkscape:version="0.48.4 r9939"
   width="100%"
   height="100%"
   sodipodi:docname="transpose.svg"
   style="fill:none;stroke:none">
  <metadata
     id="metadata71">
    <rdf:RDF>
      <cc:Work
         rdf:about="">
        <dc:format>image/svg+xml</dc:format>
        <dc:type
           rdf:resource="http://purl.org/dc/dcmitype/StillImage" />
        <dc:title />
      </cc:Work>
    </rdf:RDF>
  </metadata>
  <defs
     id="defs69" />
  <sodipodi:namedview
     pagecolor="#ffffff"
     bordercolor="#666666"
     borderopacity="1"
     objecttolerance="10"
     gridtolerance="10"
     guidetolerance="10"
     inkscape:pageopacity="0"
     inkscape:pageshadow="2"
     inkscape:window-width="1600"
     inkscape:window-height="845"
     id="namedview67"
     showgrid="false"
     inkscape:snap-global="false"
     inkscape:zoom="0.39333333"
     inkscape:cx="847.45763"
     inkscape:cy="300"
     inkscape:window-x="0"
     inkscape:window-y="27"
     inkscape:window-maximized="1"
     inkscape:current-layer="svg2" />
  <clipPath
     id="p.0">
    <path
       d="M 0,0 800,0 800,600 0,600 0,0 z"
       clip-rule="nonzero"
       id="path5"
       inkscape:connector-curvature="0" />
  </clipPath>
  <g
     clip-path="url(#p.0)"
     id="g7"
     transform="translate(0,-4.23729)">
    <path
       d="m 0,0 800,0 0,600 -800,0 z"
       id="path9"
       inkscape:connector-curvature="0"
       style="fill:#000000;fill-opacity:0;fill-rule:nonzero" />
    <path
       d="m 441.00787,76.62205 294.01575,0 0,63.74802 -294.01575,0 z"
       id="path11"
       inkscape:connector-curvature="0"
       style="fill:#000000;fill-opacity:0;fill-rule:nonzero" />
    <path
       d="m 452.72662,131.97517 0,-36.593758 7.75,0 0,2.921875 -4.23437,0 0,30.765633 4.23437,0 0,2.90625 -7.75,0 z m 34.41406,-7.95313 -3.51562,0 0,-22.40625 q -1.26563,1.21875 -3.32813,2.4375 -2.0625,1.20312 -3.70312,1.79687 l 0,-3.39062 q 2.95312,-1.39063 5.15625,-3.359378 2.20312,-1.96875 3.125,-3.828125 l 2.26562,0 0,28.750003 z m 31.39063,0 0,-6.85938 -12.42188,0 0,-3.21875 13.0625,-18.562498 2.875,0 0,18.562498 3.85938,0 0,3.21875 -3.85938,0 0,6.85938 -3.51562,0 z m 0,-10.07813 0,-12.90625 -8.96875,12.90625 8.96875,0 z m 40.5625,6.70313 0,3.375 -18.92188,0 q -0.0469,-1.26563 0.40625,-2.4375 0.71875,-1.9375 2.3125,-3.8125 1.59375,-1.875 4.59375,-4.34375 4.67188,-3.82813 6.3125,-6.0625 1.64063,-2.23438 1.64063,-4.21875 0,-2.09375 -1.5,-3.531253 -1.48438,-1.4375 -3.89063,-1.4375 -2.53125,0 -4.0625,1.53125 -1.51562,1.515623 -1.54687,4.218753 l -3.60938,-0.375 q 0.375,-4.046878 2.79688,-6.156253 2.42187,-2.125 6.5,-2.125 4.125,0 6.51562,2.28125 2.40625,2.28125 2.40625,5.671873 0,1.71875 -0.70312,3.375 -0.70313,1.65625 -2.32813,3.5 -1.625,1.82813 -5.42187,5.03125 -3.15625,2.65625 -4.0625,3.60938 -0.89063,0.9375 -1.48438,1.90625 l 14.04688,0 z m 14.875,-4.125 3.70312,-0.3125 q 0.40625,2.6875 1.89063,4.04687 1.5,1.35938 3.60937,1.35938 2.54688,0 4.29688,-1.90625 1.76562,-1.92188 1.76562,-5.07813 0,-3.01562 -1.70312,-4.75 -1.6875,-1.73437 -4.42188,-1.73437 -1.6875,0 -3.0625,0.76562 -1.35937,0.76563 -2.14062,2 l -3.3125,-0.42187 2.78125,-14.718753 14.23437,0 0,3.359375 -11.42187,0 -1.54688,7.703128 q 2.57813,-1.79688 5.40625,-1.79688 3.75,0 6.32813,2.59375 2.57812,2.59375 2.57812,6.6875 0,3.875 -2.26562,6.71875 -2.75,3.46875 -7.51563,3.46875 -3.90625,0 -6.375,-2.1875 -2.46875,-2.1875 -2.82812,-5.79687 z m 33.39062,-0.0625 3.51563,-0.46875 q 0.59375,2.98437 2.04687,4.3125 1.46875,1.3125 3.54688,1.3125 2.48437,0 4.1875,-1.71875 1.71875,-1.71875 1.71875,-4.25 0,-2.42188 -1.59375,-4 -1.57813,-1.57813 -4.01563,-1.57813 -1,0 -2.48437,0.39063 l 0.39062,-3.07813 q 0.35938,0.0312 0.57813,0.0312 2.23437,0 4.03125,-1.17187 1.79687,-1.17188 1.79687,-3.60938 0,-1.9375 -1.3125,-3.203123 -1.29687,-1.265625 -3.375,-1.265625 -2.04687,0 -3.42187,1.296875 -1.35938,1.281253 -1.75,3.859373 l -3.51563,-0.625 q 0.64063,-3.531248 2.92188,-5.468748 2.29687,-1.953125 5.6875,-1.953125 2.34375,0 4.3125,1.015625 1.98437,1 3.03125,2.734375 1.04687,1.734373 1.04687,3.687503 0,1.85937 -1,3.39062 -1,1.51563 -2.95312,2.40625 2.54687,0.59375 3.95312,2.4375 1.40625,1.84375 1.40625,4.625 0,3.75 -2.73437,6.35938 -2.73438,2.60937 -6.92188,2.60937 -3.76562,0 -6.26562,-2.25 -2.48438,-2.25 -2.82813,-5.82812 z m 51.57813,-14.0625 -3.5,0.28125 q -0.46875,-2.07813 -1.32813,-3.015628 -1.42187,-1.5 -3.51562,-1.5 -1.67188,0 -2.95313,0.9375 -1.65625,1.203128 -2.60937,3.531248 -0.95313,2.32813 -1,6.625 1.26562,-1.9375 3.09375,-2.875 1.84375,-0.9375 3.85937,-0.9375 3.51563,0 5.98438,2.59375 2.46875,2.57813 2.46875,6.6875 0,2.6875 -1.15625,5.01563 -1.15625,2.3125 -3.1875,3.54687 -2.03125,1.21875 -4.60938,1.21875 -4.40625,0 -7.1875,-3.23437 -2.76562,-3.23438 -2.76562,-10.65625 0,-8.29688 3.07812,-12.062503 2.67188,-3.28125 7.20313,-3.28125 3.375,0 5.53125,1.890625 2.15625,1.890625 2.59375,5.234378 z m -14.35938,12.34375 q 0,1.8125 0.76563,3.48437 0.78125,1.65625 2.15625,2.53125 1.39062,0.85938 2.92187,0.85938 2.21875,0 3.8125,-1.79688 1.60938,-1.79687 1.60938,-4.875 0,-2.96875 -1.57813,-4.67187 -1.57812,-1.71875 -3.98437,-1.71875 -2.375,0 -4.04688,1.71875 -1.65625,1.70312 -1.65625,4.46875 z m 25.21485,17.23438 -7.75,0 0,-2.90625 4.23437,0 0,-30.765633 -4.23437,0 0,-2.921875 7.75,0 0,36.593758 z"
       id="path13"
       inkscape:connector-curvature="0"
       style="fill:#000000;fill-rule:nonzero" />
    <path
       d="m 46.086613,76.62205 252.976377,0 0,63.74802 -252.976377,0 z"
       id="path15"
       inkscape:connector-curvature="0"
       style="fill:#000000;fill-opacity:0;fill-rule:nonzero" />
    <path
       d="m 57.805363,131.97517 0,-36.593758 7.750004,0 0,2.921875 -4.234379,0 0,30.765633 4.234379,0 0,2.90625 -7.750004,0 z m 34.414066,-7.95313 -3.515625,0 0,-22.40625 q -1.265625,1.21875 -3.328125,2.4375 -2.0625,1.20312 -3.703125,1.79687 l 0,-3.39062 q 2.953125,-1.39063 5.15625,-3.359378 2.203125,-1.96875 3.125,-3.828125 l 2.265625,0 0,28.750003 z m 38.593741,-3.375 0,3.375 -18.92187,0 q -0.0469,-1.26563 0.40625,-2.4375 0.71875,-1.9375 2.3125,-3.8125 1.59375,-1.875 4.59375,-4.34375 4.67188,-3.82813 6.3125,-6.0625 1.64063,-2.23438 1.64063,-4.21875 0,-2.09375 -1.5,-3.531253 -1.48438,-1.4375 -3.89063,-1.4375 -2.53125,0 -4.0625,1.53125 -1.51562,1.515623 -1.54687,4.218753 l -3.60938,-0.375 q 0.375,-4.046878 2.79688,-6.156253 2.42187,-2.125 6.5,-2.125 4.125,0 6.51562,2.28125 2.40625,2.28125 2.40625,5.671873 0,1.71875 -0.70313,3.375 -0.70312,1.65625 -2.32812,3.5 -1.625,1.82813 -5.42187,5.03125 -3.15625,2.65625 -4.0625,3.60938 -0.89063,0.9375 -1.48438,1.90625 l 14.04687,0 z m 14.90625,-4.1875 3.51563,-0.46875 q 0.59375,2.98437 2.04687,4.3125 1.46875,1.3125 3.54688,1.3125 2.48437,0 4.1875,-1.71875 1.71875,-1.71875 1.71875,-4.25 0,-2.42188 -1.59375,-4 -1.57813,-1.57813 -4.01563,-1.57813 -1,0 -2.48437,0.39063 l 0.39062,-3.07813 q 0.35938,0.0312 0.57813,0.0312 2.23437,0 4.03125,-1.17187 1.79687,-1.17188 1.79687,-3.60938 0,-1.9375 -1.3125,-3.203123 -1.29687,-1.265625 -3.375,-1.265625 -2.04687,0 -3.42187,1.296875 -1.35938,1.281253 -1.75,3.859373 l -3.51563,-0.625 q 0.64063,-3.531248 2.92188,-5.468748 2.29687,-1.953125 5.6875,-1.953125 2.34375,0 4.3125,1.015625 1.98437,1 3.03125,2.734375 1.04687,1.734373 1.04687,3.687503 0,1.85937 -1,3.39062 -1,1.51563 -2.95312,2.40625 2.54687,0.59375 3.95312,2.4375 1.40625,1.84375 1.40625,4.625 0,3.75 -2.73437,6.35938 -2.73438,2.60937 -6.92188,2.60937 -3.76562,0 -6.26562,-2.25 -2.48438,-2.25 -2.82813,-5.82812 z m 44.60938,7.5625 0,-6.85938 -12.42188,0 0,-3.21875 13.0625,-18.562498 2.875,0 0,18.562498 3.85938,0 0,3.21875 -3.85938,0 0,6.85938 -3.51562,0 z m 0,-10.07813 0,-12.90625 -8.96875,12.90625 8.96875,0 z m 22.07812,2.57813 3.70313,-0.3125 q 0.40625,2.6875 1.89062,4.04687 1.5,1.35938 3.60938,1.35938 2.54687,0 4.29687,-1.90625 1.76563,-1.92188 1.76563,-5.07813 0,-3.01562 -1.70313,-4.75 -1.6875,-1.73437 -4.42187,-1.73437 -1.6875,0 -3.0625,0.76562 -1.35938,0.76563 -2.14063,2 l -3.3125,-0.42187 2.78125,-14.718753 14.23438,0 0,3.359375 -11.42188,0 -1.54687,7.703128 q 2.57812,-1.79688 5.40625,-1.79688 3.75,0 6.32812,2.59375 2.57813,2.59375 2.57813,6.6875 0,3.875 -2.26563,6.71875 -2.75,3.46875 -7.51562,3.46875 -3.90625,0 -6.375,-2.1875 -2.46875,-2.1875 -2.82813,-5.79687 z m 51.60938,-14.125 -3.5,0.28125 q -0.46875,-2.07813 -1.32813,-3.015628 -1.42187,-1.5 -3.51562,-1.5 -1.67188,0 -2.95313,0.9375 -1.65625,1.203128 -2.60937,3.531248 -0.95313,2.32813 -1,6.625 1.26562,-1.9375 3.09375,-2.875 1.84375,-0.9375 3.85937,-0.9375 3.51563,0 5.98438,2.59375 2.46875,2.57813 2.46875,6.6875 0,2.6875 -1.15625,5.01563 -1.15625,2.3125 -3.1875,3.54687 -2.03125,1.21875 -4.60938,1.21875 -4.40625,0 -7.1875,-3.23437 -2.76562,-3.23438 -2.76562,-10.65625 0,-8.29688 3.07812,-12.062503 2.67188,-3.28125 7.20313,-3.28125 3.375,0 5.53125,1.890625 2.15625,1.890625 2.59375,5.234378 z m -14.35938,12.34375 q 0,1.8125 0.76563,3.48437 0.78125,1.65625 2.15625,2.53125 1.39062,0.85938 2.92187,0.85938 2.21875,0 3.8125,-1.79688 1.60938,-1.79687 1.60938,-4.875 0,-2.96875 -1.57813,-4.67187 -1.57812,-1.71875 -3.98437,-1.71875 -2.375,0 -4.04688,1.71875 -1.65625,1.70312 -1.65625,4.46875 z m 25.21484,17.23438 -7.75,0 0,-2.90625 4.23438,0 0,-30.765633 -4.23438,0 0,-2.921875 7.75,0 0,36.593758 z"
       id="path17"
       inkscape:connector-curvature="0"
       style="fill:#000000;fill-rule:nonzero" />
    <path
       d="m 75,188.38846 195.1496,0 0,131.62204 -195.1496,0 z"
       id="path19"
       inkscape:connector-curvature="0"
       style="fill:#cfe2f3;fill-rule:nonzero" />
    <path
       d="m 75,188.38846 195.1496,0 0,131.62204 -195.1496,0 z"
       id="path21"
       inkscape:connector-curvature="0"
       style="stroke:#000000;stroke-width:1;stroke-linecap:butt;stroke-linejoin:round" />
    <path
       d="m 75,188.38846 195.1496,0 0,63.74803 -195.1496,0 z"
       id="path23"
       inkscape:connector-curvature="0"
       style="fill:#e06666;fill-rule:nonzero" />
    <path
       d="m 75,188.38846 195.1496,0 0,63.74803 -195.1496,0 z"
       id="path25"
       inkscape:connector-curvature="0"
       style="stroke:#000000;stroke-width:1;stroke-linecap:butt;stroke-linejoin:round" />
    <path
       d="m 87.54781,172.5466 208.44095,0 0,63.74803 -208.44095,0 z"
       id="path27"
       inkscape:connector-curvature="0"
       style="fill:#000000;fill-opacity:0;fill-rule:nonzero" />
    <path
       d="m 120.39156,242.9866 -5.625,0 0,-35.84375 q -2.03125,1.9375 -5.32813,3.875 -3.29687,1.9375 -5.92187,2.90625 l 0,-5.4375 q 4.71875,-2.21875 8.25,-5.375 3.53125,-3.15625 5,-6.125 l 3.625,0 0,46 z m 61.75001,-5.40625 0,5.40625 -30.28125,0 q -0.0625,-2.03125 0.65625,-3.90625 1.15625,-3.09375 3.70312,-6.09375 2.54688,-3 7.35938,-6.9375 7.46875,-6.125 10.09375,-9.70313 2.625,-3.57812 2.625,-6.76562 0,-3.34375 -2.39063,-5.64063 -2.39062,-2.29687 -6.23437,-2.29687 -4.0625,0 -6.5,2.4375 -2.4375,2.4375 -2.46875,6.75 l -5.78125,-0.59375 q 0.59375,-6.46875 4.46875,-9.85938 3.875,-3.39062 10.40625,-3.39062 6.59375,0 10.4375,3.65625 3.84375,3.65625 3.84375,9.0625 0,2.75 -1.125,5.40625 -1.125,2.65625 -3.73438,5.59375 -2.60937,2.9375 -8.67187,8.0625 -5.0625,4.25 -6.5,5.76562 -1.4375,1.51563 -2.375,3.04688 l 22.46875,0 z m 23.84375,-6.6875 5.625,-0.75 q 0.96875,4.78125 3.29687,6.89062 2.32813,2.10938 5.67188,2.10938 3.96875,0 6.70312,-2.75 2.73438,-2.75 2.73438,-6.8125 0,-3.875 -2.53125,-6.39063 -2.53125,-2.51562 -6.4375,-2.51562 -1.59375,0 -3.96875,0.625 l 0.625,-4.9375 q 0.5625,0.0625 0.90625,0.0625 3.59375,0 6.46875,-1.875 2.875,-1.875 2.875,-5.78125 0,-3.09375 -2.09375,-5.125 -2.09375,-2.03125 -5.40625,-2.03125 -3.28125,0 -5.46875,2.0625 -2.1875,2.0625 -2.8125,6.1875 l -5.625,-1 q 1.03125,-5.65625 4.6875,-8.76563 3.65625,-3.10937 9.09375,-3.10937 3.75,0 6.90625,1.60937 3.15625,1.60938 4.82812,4.39063 1.67188,2.78125 1.67188,5.90625 0,2.96875 -1.59375,5.40625 -1.59375,2.4375 -4.71875,3.875 4.0625,0.9375 6.3125,3.89062 2.25,2.95313 2.25,7.39063 0,6 -4.375,10.17187 -4.375,4.17188 -11.0625,4.17188 -6.03125,0 -10.01563,-3.59375 -3.98437,-3.59375 -4.54687,-9.3125 z"
       id="path29"
       inkscape:connector-curvature="0"
       style="fill:#000000;fill-rule:nonzero" />
    <path
       d="m 87.54781,239.26839 208.44095,0 0,63.74803 -208.44095,0 z"
       id="path31"
       inkscape:connector-curvature="0"
       style="fill:#000000;fill-opacity:0;fill-rule:nonzero" />
    <path
       d="m 117.23531,309.7084 0,-10.96875 -19.875,0 0,-5.15625 20.90625,-29.6875 4.59375,0 0,29.6875 6.18751,0 0,5.15625 -6.18751,0 0,10.96875 -5.625,0 z m 0,-16.125 0,-20.65625 -14.34375,20.65625 14.34375,0 z m 35.34376,4.125 5.90625,-0.5 q 0.65625,4.3125 3.04687,6.48437 2.39063,2.17188 5.76563,2.17188 4.0625,0 6.875,-3.0625 2.8125,-3.0625 2.8125,-8.125 0,-4.8125 -2.70313,-7.59375 -2.70312,-2.78125 -7.07812,-2.78125 -2.71875,0 -4.90625,1.23437 -2.1875,1.23438 -3.4375,3.20313 l -5.28125,-0.6875 4.4375,-23.53125 22.78125,0 0,5.375 -18.28125,0 -2.46875,12.3125 q 4.125,-2.875 8.65625,-2.875 6,0 10.125,4.15625 4.125,4.15625 4.125,10.6875 0,6.21875 -3.625,10.75 -4.40625,5.5625 -12.03125,5.5625 -6.25,0 -10.20313,-3.5 -3.95312,-3.5 -4.51562,-9.28125 z m 82.5625,-22.59375 -5.59375,0.4375 q -0.75,-3.3125 -2.125,-4.8125 -2.28125,-2.40625 -5.625,-2.40625 -2.6875,0 -4.71875,1.5 -2.65625,1.9375 -4.1875,5.65625 -1.53125,3.71875 -1.59375,10.59375 2.03125,-3.09375 4.96875,-4.59375 2.9375,-1.5 6.15625,-1.5 5.625,0 9.57812,4.14062 3.95313,4.14063 3.95313,10.70313 0,4.3125 -1.85938,8.01562 -1.85937,3.70313 -5.10937,5.67188 -3.25,1.96875 -7.375,1.96875 -7.03125,0 -11.46875,-5.17188 -4.4375,-5.17187 -4.4375,-17.04687 0,-13.28125 4.90625,-19.3125 4.28125,-5.25 11.53125,-5.25 5.40625,0 8.85937,3.03125 3.45313,3.03125 4.14063,8.375 z m -22.96875,19.75 q 0,2.90625 1.23437,5.5625 1.23438,2.65625 3.45313,4.04687 2.21875,1.39063 4.65625,1.39063 3.5625,0 6.125,-2.875 2.5625,-2.875 2.5625,-7.8125 0,-4.75 -2.53125,-7.48438 -2.53125,-2.73437 -6.375,-2.73437 -3.8125,0 -6.46875,2.73437 -2.65625,2.73438 -2.65625,7.17188 z"
       id="path33"
       inkscape:connector-curvature="0"
       style="fill:#000000;fill-rule:nonzero" />
    <path
       d="m 615,147.97638 0,195.21259 -137.22833,0 0,-195.21259 z"
       id="path35"
       inkscape:connector-curvature="0"
       style="fill:#cfe2f3;fill-rule:nonzero" />
    <path
       d="m 615,147.97638 0,195.21259 -137.22833,0 0,-195.21259 z"
       id="path37"
       inkscape:connector-curvature="0"
       style="stroke:#000000;stroke-width:1;stroke-linecap:butt;stroke-linejoin:round" />
    <path
       d="m 541.51306,147.97577 0,195.1496 -63.74802,0 0,-195.1496 z"
       id="path39"
       inkscape:connector-curvature="0"
       style="fill:#e06666;fill-rule:nonzero" />
    <path
       d="m 541.51306,147.97577 0,195.1496 -63.74802,0 0,-195.1496 z"
       id="path41"
       inkscape:connector-curvature="0"
       style="stroke:#000000;stroke-width:1;stroke-linecap:butt;stroke-linejoin:round" />
    <path
       d="m 477.7629,147.97748 63.74802,0 0,246.33072 -63.74802,0 z"
       id="path43"
       inkscape:connector-curvature="0"
       style="fill:#000000;fill-opacity:0;fill-rule:nonzero" />
    <path
       d="m 504.65353,203.05748 -4.21875,0 0,-26.89063 q -1.53125,1.45313 -4,2.90625 -2.46875,1.45313 -4.4375,2.1875 l 0,-4.07812 q 3.53125,-1.67188 6.17187,-4.03125 2.65625,-2.375 3.76563,-4.59375 l 2.71875,0 0,34.5 z"
       id="path45"
       inkscape:connector-curvature="0"
       style="fill:#000000;fill-rule:nonzero" />
    <path
       d="m 510.93478,256.99496 0,4.0625 -22.71875,0 q -0.0469,-1.53125 0.5,-2.9375 0.85937,-2.31248 2.76562,-4.56248 1.92188,-2.25 5.53125,-5.20313 5.59375,-4.59375 7.5625,-7.28125 1.96875,-2.6875 1.96875,-5.07812 0,-2.5 -1.79687,-4.21875 -1.78125,-1.73438 -4.67188,-1.73438 -3.04687,0 -4.875,1.82813 -1.82812,1.82812 -1.84375,5.0625 l -4.34375,-0.4375 q 0.45313,-4.85938 3.35938,-7.39063 2.90625,-2.54687 7.79687,-2.54687 4.95313,0 7.82813,2.75 2.89062,2.73437 2.89062,6.78125 0,2.0625 -0.84375,4.0625 -0.84375,1.98437 -2.8125,4.1875 -1.95312,2.20312 -6.5,6.04687 -3.79687,3.1875 -4.875,4.32813 -1.07812,1.14062 -1.78125,2.28123 l 16.85938,0 z"
       id="path47"
       inkscape:connector-curvature="0"
       style="fill:#000000;fill-rule:nonzero" />
    <path
       d="m 488.77853,309.97934 4.21875,-0.5625 q 0.73437,3.59375 2.46875,5.17187 1.75,1.57813 4.26562,1.57813 2.96875,0 5.01563,-2.0625 2.0625,-2.0625 2.0625,-5.10938 0,-2.90625 -1.90625,-4.78125 -1.89063,-1.89062 -4.82813,-1.89062 -1.1875,0 -2.96875,0.46875 l 0.46875,-3.70313 q 0.42188,0.0469 0.67188,0.0469 2.70312,0 4.85937,-1.40625 2.15625,-1.40625 2.15625,-4.34375 0,-2.3125 -1.57812,-3.82813 -1.5625,-1.53125 -4.04688,-1.53125 -2.46875,0 -4.10937,1.54688 -1.64063,1.54687 -2.10938,4.64062 l -4.21875,-0.75 q 0.78125,-4.25 3.51563,-6.57812 2.75,-2.32813 6.82812,-2.32813 2.8125,0 5.17188,1.20313 2.375,1.20312 3.625,3.29687 1.25,2.07813 1.25,4.42188 0,2.23437 -1.20313,4.0625 -1.1875,1.82812 -3.53125,2.90625 3.04688,0.70312 4.73438,2.92187 1.6875,2.20313 1.6875,5.53125 0,4.5 -3.28125,7.64063 -3.28125,3.125 -8.29688,3.125 -4.51562,0 -7.51562,-2.6875 -2.98438,-2.70313 -3.40625,-7 z"
       id="path49"
       inkscape:connector-curvature="0"
       style="fill:#000000;fill-rule:nonzero" />
    <path
       d="m 556.14154,147.97664 63.74805,0 0,221.85826 -63.74805,0 z"
       id="path51"
       inkscape:connector-curvature="0"
       style="fill:#000000;fill-opacity:0;fill-rule:nonzero" />
    <path
       d="m 580.65717,203.05663 0,-8.23438 -14.90625,0 0,-3.85937 15.6875,-22.26563 3.4375,0 0,22.26563 4.64062,0 0,3.85937 -4.64062,0 0,8.23438 -4.21875,0 z m 0,-12.09375 0,-15.5 -10.75,15.5 10.75,0 z"
       id="path53"
       inkscape:connector-curvature="0"
       style="fill:#000000;fill-rule:nonzero" />
    <path
       d="m 567.14154,252.05664 4.42187,-0.375 q 0.5,3.23437 2.28125,4.85938 1.79688,1.625 4.32813,1.625 3.04687,0 5.15625,-2.29688 2.10937,-2.29687 2.10937,-6.09375 0,-3.60937 -2.03125,-5.6875 -2.01562,-2.09375 -5.29687,-2.09375 -2.04688,0 -3.6875,0.9375 -1.64063,0.92188 -2.57813,2.39063 l -3.95312,-0.51563 3.32812,-17.64062 17.07813,0 0,4.03125 -13.70313,0 -1.85937,9.23437 q 3.09375,-2.15625 6.5,-2.15625 4.5,0 7.59375,3.125 3.09375,3.10938 3.09375,8 0,4.67188 -2.71875,8.0625 -3.3125,4.1875 -9.03125,4.1875 -4.6875,0 -7.65625,-2.625 -2.95313,-2.64062 -3.375,-6.96875 z"
       id="path55"
       inkscape:connector-curvature="0"
       style="fill:#000000;fill-rule:nonzero" />
    <path
       d="m 589.03217,293.10352 -4.20313,0.32812 q -0.5625,-2.48437 -1.59375,-3.60937 -1.70312,-1.79688 -4.21875,-1.79688 -2.01562,0 -3.53125,1.125 -2,1.45313 -3.15625,4.25 -1.14062,2.78125 -1.1875,7.9375 1.53125,-2.32812 3.73438,-3.45312 2.20312,-1.125 4.60937,-1.125 4.21875,0 7.1875,3.10937 2.96875,3.10938 2.96875,8.03125 0,3.23438 -1.40625,6.01563 -1.39062,2.76562 -3.82812,4.25 -2.4375,1.48437 -5.53125,1.48437 -5.26563,0 -8.59375,-3.875 -3.32813,-3.89062 -3.32813,-12.79687 0,-9.96875 3.67188,-14.48438 3.21875,-3.9375 8.65625,-3.9375 4.04687,0 6.64062,2.28125 2.59375,2.26563 3.10938,6.26563 z m -17.23438,14.8125 q 0,2.1875 0.92188,4.1875 0.9375,1.98437 2.59375,3.03125 1.67187,1.03125 3.5,1.03125 2.67187,0 4.59375,-2.15625 1.92187,-2.15625 1.92187,-5.85938 0,-3.5625 -1.90625,-5.60937 -1.89062,-2.04688 -4.78125,-2.04688 -2.85937,0 -4.85937,2.04688 -1.98438,2.04687 -1.98438,5.375 z"
       id="path57"
       inkscape:connector-curvature="0"
       style="fill:#000000;fill-rule:nonzero" />
    <path
       d="m 301.4567,235.08661 124.01575,0 0,-10.49606 20.99213,20.99212 -20.99213,20.99213 0,-10.49606 -124.01575,0 z"
       id="path59"
       inkscape:connector-curvature="0"
       style="fill:#f4cccc;fill-rule:nonzero" />
    <path
       d="m 301.4567,235.08661 124.01575,0 0,-10.49606 20.99213,20.99212 -20.99213,20.99213 0,-10.49606 -124.01575,0 z"
       id="path61"
       inkscape:connector-curvature="0"
       style="stroke:#000000;stroke-width:1;stroke-linecap:butt;stroke-linejoin:round" />
    <path
       d="m 310.46063,188.38846 126.99213,0 0,57.98424 -126.99213,0 z"
       id="path63"
       inkscape:connector-curvature="0"
       style="fill:#000000;fill-opacity:0;fill-rule:nonzero" />
    <path
       d="m 323.89813,215.30846 0,-11.29688 -4.03125,0 0,-2.29687 10.8125,0 0,2.29687 -4.03125,0 0,11.29688 -2.75,0 z m 10.81784,0 -2.60937,0 0,-9.85938 2.42187,0 0,1.40625 q 0.625,-0.98437 1.10938,-1.29687 0.5,-0.32813 1.14062,-0.32813 0.89063,0 1.71875,0.5 l -0.8125,2.26563 q -0.65625,-0.42188 -1.21875,-0.42188 -0.54687,0 -0.9375,0.29688 -0.375,0.29687 -0.59375,1.09375 -0.21875,0.78125 -0.21875,3.29687 l 0,3.04688 z m 6.71341,-6.84375 -2.35937,-0.4375 q 0.39062,-1.42188 1.35937,-2.10938 0.98438,-0.6875 2.90625,-0.6875 1.73438,0 2.59375,0.42188 0.85938,0.40625 1.20313,1.04687 0.34375,0.625 0.34375,2.32813 l -0.0312,3.04687 q 0,1.29688 0.125,1.92188 0.125,0.60937 0.46875,1.3125 l -2.57813,0 q -0.0937,-0.26563 -0.25,-0.76563 -0.0625,-0.23437 -0.0937,-0.3125 -0.65625,0.65625 -1.42187,0.98438 -0.76563,0.3125 -1.625,0.3125 -1.51563,0 -2.40625,-0.8125 -0.875,-0.82813 -0.875,-2.09375 0,-0.84375 0.39062,-1.48438 0.40625,-0.65625 1.125,-1 0.71875,-0.35937 2.07813,-0.625 1.82812,-0.32812 2.53125,-0.625 l 0,-0.26562 q 0,-0.75 -0.375,-1.0625 -0.35938,-0.32813 -1.39063,-0.32813 -0.70312,0 -1.09375,0.28125 -0.39062,0.26563 -0.625,0.95313 z m 3.48438,2.10937 q -0.5,0.17188 -1.59375,0.40625 -1.07813,0.23438 -1.40625,0.45313 -0.51563,0.35937 -0.51563,0.92187 0,0.54688 0.40625,0.95313 0.40625,0.39062 1.04688,0.39062 0.70312,0 1.34375,-0.46875 0.46875,-0.35937 0.625,-0.85937 0.0937,-0.34375 0.0937,-1.28125 l 0,-0.51563 z m 13.90695,4.73438 -2.60938,0 0,-5.03125 q 0,-1.59375 -0.17187,-2.0625 -0.15625,-0.46875 -0.53125,-0.71875 -0.375,-0.26563 -0.90625,-0.26563 -0.6875,0 -1.23438,0.375 -0.53125,0.35938 -0.73437,0.98438 -0.1875,0.60937 -0.1875,2.25 l 0,4.46875 -2.60938,0 0,-9.85938 2.42188,0 0,1.45313 q 1.29687,-1.67188 3.25,-1.67188 0.85937,0 1.57812,0.3125 0.71875,0.3125 1.07813,0.79688 0.35937,0.48437 0.5,1.09375 0.15625,0.60937 0.15625,1.75 l 0,6.125 z m 1.52099,-2.8125 2.60938,-0.39063 q 0.17187,0.75 0.67187,1.15625 0.51563,0.39063 1.4375,0.39063 1,0 1.51563,-0.375 0.34375,-0.26563 0.34375,-0.70313 0,-0.29687 -0.1875,-0.48437 -0.1875,-0.1875 -0.875,-0.34375 -3.14063,-0.70313 -4,-1.26563 -1.15625,-0.79687 -1.15625,-2.21875 0,-1.28125 1,-2.15625 1.01562,-0.875 3.14062,-0.875 2.03125,0 3,0.65625 0.98438,0.65625 1.35938,1.95313 l -2.45313,0.45312 q -0.15625,-0.57812 -0.60937,-0.875 -0.4375,-0.3125 -1.25,-0.3125 -1.03125,0 -1.46875,0.29688 -0.29688,0.20312 -0.29688,0.51562 0,0.28125 0.25,0.48438 0.35938,0.25 2.4375,0.73437 2.07813,0.46875 2.90625,1.15625 0.82813,0.6875 0.82813,1.9375 0,1.35938 -1.14063,2.32813 -1.125,0.96875 -3.34375,0.96875 -2.01562,0 -3.1875,-0.8125 -1.17187,-0.8125 -1.53125,-2.21875 z m 11.21946,-7.04688 2.42187,0 0,1.45313 q 0.46875,-0.73438 1.28125,-1.20313 0.8125,-0.46875 1.79688,-0.46875 1.70312,0 2.90625,1.34375 1.20312,1.34375 1.20312,3.75 0,2.46875 -1.21875,3.84375 -1.20312,1.35938 -2.92187,1.35938 -0.8125,0 -1.48438,-0.3125 -0.65625,-0.32813 -1.39062,-1.125 l 0,4.96875 -2.59375,0 0,-13.60938 z m 2.57812,4.76563 q 0,1.65625 0.65625,2.45312 0.65625,0.79688 1.59375,0.79688 0.92188,0 1.51563,-0.71875 0.60937,-0.73438 0.60937,-2.40625 0,-1.54688 -0.625,-2.29688 -0.625,-0.75 -1.53125,-0.75 -0.96875,0 -1.59375,0.73438 -0.625,0.73437 -0.625,2.1875 z m 8.28662,0.0312 q 0,-1.29688 0.64063,-2.51563 0.64062,-1.21875 1.8125,-1.85937 1.17187,-0.64063 2.60937,-0.64063 2.25,0 3.67188,1.45313 1.42187,1.45312 1.42187,3.67187 0,2.23438 -1.4375,3.70313 -1.4375,1.46875 -3.625,1.46875 -1.35937,0 -2.59375,-0.60938 -1.21875,-0.60937 -1.85937,-1.79687 -0.64063,-1.1875 -0.64063,-2.875 z m 2.67188,0.14062 q 0,1.46875 0.6875,2.25 0.70312,0.76563 1.71875,0.76563 1.01562,0 1.70312,-0.76563 0.70313,-0.78125 0.70313,-2.26562 0,-1.45313 -0.70313,-2.23438 -0.6875,-0.78125 -1.70312,-0.78125 -1.01563,0 -1.71875,0.78125 -0.6875,0.78125 -0.6875,2.25 z m 8.41159,2.10938 2.60937,-0.39063 q 0.17188,0.75 0.67188,1.15625 0.51562,0.39063 1.4375,0.39063 1,0 1.51562,-0.375 0.34375,-0.26563 0.34375,-0.70313 0,-0.29687 -0.1875,-0.48437 -0.1875,-0.1875 -0.875,-0.34375 -3.14062,-0.70313 -4,-1.26563 -1.15625,-0.79687 -1.15625,-2.21875 0,-1.28125 1,-2.15625 1.01563,-0.875 3.14063,-0.875 2.03125,0 3,0.65625 0.98437,0.65625 1.35937,1.95313 l -2.45312,0.45312 q -0.15625,-0.57812 -0.60938,-0.875 -0.4375,-0.3125 -1.25,-0.3125 -1.03125,0 -1.46875,0.29688 -0.29687,0.20312 -0.29687,0.51562 0,0.28125 0.25,0.48438 0.35937,0.25 2.4375,0.73437 2.07812,0.46875 2.90625,1.15625 0.82812,0.6875 0.82812,1.9375 0,1.35938 -1.14062,2.32813 -1.125,0.96875 -3.34375,0.96875 -2.01563,0 -3.1875,-0.8125 -1.17188,-0.8125 -1.53125,-2.21875 z m 16.9851,-0.32813 2.60938,0.4375 q -0.5,1.4375 -1.59375,2.1875 -1.07813,0.73438 -2.70313,0.73438 -2.5625,0 -3.79687,-1.67188 -0.96875,-1.34375 -0.96875,-3.40625 0,-2.4375 1.26562,-3.82812 1.28125,-1.39063 3.25,-1.39063 2.1875,0 3.45313,1.45313 1.28125,1.45312 1.23437,4.45312 l -6.53125,0 q 0.0156,1.15625 0.625,1.8125 0.60938,0.64063 1.5,0.64063 0.60938,0 1.03125,-0.32813 0.42188,-0.34375 0.625,-1.09375 z m 0.15625,-2.625 q -0.0312,-1.14062 -0.59375,-1.71875 -0.54687,-0.59375 -1.34375,-0.59375 -0.85937,0 -1.40625,0.625 -0.5625,0.60938 -0.54687,1.6875 l 3.89062,0 z"
       id="path65"
       inkscape:connector-curvature="0"
       style="fill:#000000;fill-rule:nonzero" />
  </g>
  <rect
     style="opacity:0"
     id="rect3927"
     width="663.55933"
     height="310.16946"
     x="38.135593"
     y="-141.52542"
     ry="0" />
  <rect
     style="opacity:0"
     id="rect3929"
     width="696.61017"
     height="355.93219"
     x="20.338984"
     y="-144.06779" />
  <rect
     style="opacity:0"
     id="rect3931"
     width="673.72882"
     height="338.13559"
     x="22.881355"
     y="-144.06779" />
</svg>
